<?xml version="1.0" encoding="UTF-8" standalone="no"?>
<!-- Generator: Adobe Illustrator 19.1.0, SVG Export Plug-In . SVG Version: 6.00 Build 0)  -->

<svg
   xmlns:dc="http://purl.org/dc/elements/1.1/"
   xmlns:cc="http://creativecommons.org/ns#"
   xmlns:rdf="http://www.w3.org/1999/02/22-rdf-syntax-ns#"
   xmlns:svg="http://www.w3.org/2000/svg"
   xmlns="http://www.w3.org/2000/svg"
   xmlns:sodipodi="http://sodipodi.sourceforge.net/DTD/sodipodi-0.dtd"
   xmlns:inkscape="http://www.inkscape.org/namespaces/inkscape"
   version="1.1"
   id="Layer_1"
   x="0px"
   y="0px"
   width="400px"
   height="270px"
   viewBox="65 0 400 270"
   style="enable-background:new 65 0 400 270;"
   xml:space="preserve"
   inkscape:version="0.91 r13725"
   sodipodi:docname="f6-template-realestate.svg"><metadata
     id="metadata71"><rdf:RDF><cc:Work
         rdf:about=""><dc:format>image/svg+xml</dc:format><dc:type
           rdf:resource="http://purl.org/dc/dcmitype/StillImage" /><dc:title></dc:title></cc:Work></rdf:RDF></metadata><defs
     id="defs69" /><sodipodi:namedview
     pagecolor="#ffffff"
     bordercolor="#666666"
     borderopacity="1"
     objecttolerance="10"
     gridtolerance="10"
     guidetolerance="10"
     inkscape:pageopacity="0"
     inkscape:pageshadow="2"
     inkscape:window-width="1566"
     inkscape:window-height="1045"
     id="namedview67"
     showgrid="false"
     showborder="true"
     inkscape:showpageshadow="false"
     inkscape:zoom="2.2888889"
     inkscape:cx="295.46117"
     inkscape:cy="135"
     inkscape:window-x="0"
     inkscape:window-y="0"
     inkscape:window-maximized="0"
     inkscape:current-layer="Layer_1" /><style
     type="text/css"
     id="style3">
	.st0{fill:#05526A;stroke:#05526A;stroke-miterlimit:10;}
	.st1{opacity:0.5;fill:#EBEBEB;enable-background:new    ;}
	.st2{opacity:0.6;fill:#EBEBEB;enable-background:new    ;}
	.st3{opacity:0.3;fill:#EBEBEB;enable-background:new    ;}
	.st4{fill:#CFD5D8;}
	.st5{fill:#05526A;}
	.st6{opacity:0.5;fill:#05526A;enable-background:new    ;}
	.st7{fill:#CED4D6;}
	.st8{fill:#ECECEC;}
	.st9{fill:none;stroke:#ECECEC;stroke-width:2;stroke-linecap:round;stroke-miterlimit:10;}
</style><rect
     x="65"
     y="0"
     class="st0"
     width="400"
     height="29.5"
     id="rect5" /><path
     class="st1"
     d="M132.7,21.4h-50c-1.1,0-2-0.9-2-2v-9.2c0-1.1,0.9-2,2-2h50c1.1,0,2,0.9,2,2v9.2  C134.7,20.5,133.8,21.4,132.7,21.4z"
     id="path7" /><path
     class="st2"
     d="M446.6,21.4h-25.5c-1.1,0-2-0.9-2-2v-9.2c0-1.1,0.9-2,2-2h25.5c1.1,0,2,0.9,2,2v9.2  C448.6,20.5,447.7,21.4,446.6,21.4z"
     id="path9" /><path
     class="st3"
     d="M178.7,18.9h-26.3c-1.1,0-2-0.9-2-2v-4.4c0-1.1,0.9-2,2-2h26.3c1.1,0,2,0.9,2,2v4.4  C180.7,18,179.8,18.9,178.7,18.9z"
     id="path11" /><path
     class="st4"
     d="M233.5,56.3H84.3c-1.1,0-2-0.9-2-2v-5c0-1.1,0.9-2,2-2h149.1c1.1,0,2,0.9,2,2v5  C235.5,55.4,234.6,56.3,233.5,56.3z"
     id="path13" /><path
     class="st5"
     d="M127,121.6H84.3c-1.1,0-2-0.9-2-2v-10.9c0-1.1,0.9-2,2-2H127c1.1,0,2,0.9,2,2v10.9  C129,120.7,128.1,121.6,127,121.6z"
     id="path15" /><path
     class="st6"
     d="M180.4,121.6h-42.7c-1.1,0-2-0.9-2-2v-10.9c0-1.1,0.9-2,2-2h42.7c1.1,0,2,0.9,2,2v10.9  C182.4,120.7,181.5,121.6,180.4,121.6z"
     id="path17" /><path
     class="st7"
     d="M348,122.6h-82.3c-1.1,0-2-0.9-2-2V49.3c0-1.1,0.9-2,2-2H348c1.1,0,2,0.9,2,2v71.3  C350,121.7,349,122.6,348,122.6z"
     id="path19" /><path
     class="st8"
     d="M240.8,77.6H84.3c-1.1,0-2-0.9-2-2v-5c0-1.1,0.9-2,2-2h156.5c1.1,0,2,0.9,2,2v5  C242.8,76.8,241.9,77.6,240.8,77.6z"
     id="path21" /><path
     class="st8"
     d="M228.2,93.1H84.3c-1.1,0-2-0.9-2-2v-5c0-1.1,0.9-2,2-2h143.9c1.1,0,2,0.9,2,2v5  C230.2,92.2,229.3,93.1,228.2,93.1z"
     id="path23" /><g
     id="g25"><path
       class="st7"
       d="M445.7,122.6h-82.3c-1.1,0-2-0.9-2-2V49.3c0-1.1,0.9-2,2-2h82.3c1.1,0,2,0.9,2,2v71.3   C447.7,121.7,446.8,122.6,445.7,122.6z"
       id="path27" /><path
       class="st8"
       d="M437.4,69.6h-65.6c-1.1,0-2-0.9-2-2v-5c0-1.1,0.9-2,2-2h65.6c1.1,0,2,0.9,2,2v5   C439.4,68.8,438.5,69.6,437.4,69.6z"
       id="path29" /><path
       class="st8"
       d="M437.4,88.1h-65.6c-1.1,0-2-0.9-2-2v-5c0-1.1,0.9-2,2-2h65.6c1.1,0,2,0.9,2,2v5   C439.4,87.2,438.5,88.1,437.4,88.1z"
       id="path31" /><path
       class="st5"
       d="M406.6,109.9h-34.8c-1.1,0-2-0.9-2-2v-7.2c0-1.1,0.9-2,2-2h34.8c1.1,0,2,0.9,2,2v7.2   C408.6,109,407.7,109.9,406.6,109.9z"
       id="path33" /></g><g
     id="g35"><path
       class="st4"
       d="M179.3,236H82.8c-1.1,0-2-0.9-2-2v-5c0-1.1,0.9-2,2-2h96.5c1.1,0,2,0.9,2,2v5C181.3,235.1,180.4,236,179.3,236   z"
       id="path37" /><path
       class="st8"
       d="M184.2,251.3H82.8c-1.1,0-2-0.9-2-2v-5c0-1.1,0.9-2,2-2h101.4c1.1,0,2,0.9,2,2v5   C186.2,250.4,185.3,251.3,184.2,251.3z"
       id="path39" /><path
       class="st7"
       d="M185.6,215.7H82.8c-1.1,0-2-0.9-2-2v-52.4c0-1.1,0.9-2,2-2h102.8c1.1,0,2,0.9,2,2v52.4   C187.6,214.8,186.7,215.7,185.6,215.7z"
       id="path41" /></g><g
     id="g43"><path
       class="st4"
       d="M310.8,236h-97.9c-1.1,0-2-0.9-2-2v-5c0-1.1,0.9-2,2-2h97.9c1.1,0,2,0.9,2,2v5   C312.8,235.1,311.9,236,310.8,236z"
       id="path45" /><path
       class="st8"
       d="M315.7,251.3H212.8c-1.1,0-2-0.9-2-2v-5c0-1.1,0.9-2,2-2h102.8c1.1,0,2,0.9,2,2v5   C317.7,250.4,316.8,251.3,315.7,251.3z"
       id="path47" /><path
       class="st7"
       d="M317.2,215.7H212.8c-1.1,0-2-0.9-2-2v-52.4c0-1.1,0.9-2,2-2h104.3c1.1,0,2,0.9,2,2v52.4   C319.2,214.8,318.3,215.7,317.2,215.7z"
       id="path49" /></g><g
     id="g51"><path
       class="st4"
       d="M441.6,236h-98c-1.1,0-2-0.9-2-2v-5c0-1.1,0.9-2,2-2h98c1.1,0,2,0.9,2,2v5C443.6,235.1,442.7,236,441.6,236z"
       id="path53" /><path
       class="st8"
       d="M446.5,251.3h-103c-1.1,0-2-0.9-2-2v-5c0-1.1,0.9-2,2-2h103c1.1,0,2,0.9,2,2v5   C448.5,250.4,447.6,251.3,446.5,251.3z"
       id="path55" /><path
       class="st7"
       d="M448,215.7H343.6c-1.1,0-2-0.9-2-2v-52.4c0-1.1,0.9-2,2-2H448c1.1,0,2,0.9,2,2v52.4   C450,214.8,449.1,215.7,448,215.7z"
       id="path57" /></g><line
     class="st9"
     x1="80.7"
     y1="143"
     x2="450.1"
     y2="143"
     id="line59" /><path
     class="st3"
     d="M218.7,18.9h-26.3c-1.1,0-2-0.9-2-2v-4.4c0-1.1,0.9-2,2-2h26.3c1.1,0,2,0.9,2,2v4.4  C220.7,18,219.8,18.9,218.7,18.9z"
     id="path61" /><path
     class="st3"
     d="M258.7,18.9h-26.3c-1.1,0-2-0.9-2-2v-4.4c0-1.1,0.9-2,2-2h26.3c1.1,0,2,0.9,2,2v4.4  C260.7,18,259.8,18.9,258.7,18.9z"
     id="path63" /><path
     class="st3"
     d="M408.7,18.9h-26.3c-1.1,0-2-0.9-2-2v-4.4c0-1.1,0.9-2,2-2h26.3c1.1,0,2,0.9,2,2v4.4  C410.7,18,409.8,18.9,408.7,18.9z"
     id="path65" /><style
     id="style3400"
     type="text/css">
	.st0{fill:#FFFFFF;stroke:#E2E2E2;stroke-miterlimit:10;}
	.st1{opacity:0.5;fill:none;stroke:#EBEBEB;stroke-width:4.3124;stroke-linecap:round;stroke-miterlimit:10;}
	.st2{fill:#05526A;stroke:#05526A;stroke-miterlimit:10;}
	.st3{opacity:0.5;fill:#EBEBEB;}
	.st4{opacity:0.1;fill:#EBEBEB;}
	.st5{fill:#CED4D6;}
	.st6{fill:#9DADB3;}
	.st7{fill:#05526A;}
	.st8{opacity:0.75;fill:#05526A;}
	.st9{fill:#ECECEC;}
	.st10{opacity:0.25;fill:#EBEBEB;}
	.st11{fill:#FFFFFF;}
	.st12{fill:#CED4D6;stroke:#CED4D6;stroke-miterlimit:10;}
	.st13{fill:#CED4D6;stroke:#E2E2E2;stroke-miterlimit:10;}
</style><style
     id="style3512"
     type="text/css">
	.st0{fill:#FFFFFF;stroke:#E2E2E2;stroke-miterlimit:10;}
	.st1{opacity:0.5;fill:none;stroke:#EBEBEB;stroke-width:4.3124;stroke-linecap:round;stroke-miterlimit:10;}
	.st2{fill:#05526A;stroke:#05526A;stroke-miterlimit:10;}
	.st3{opacity:0.5;fill:#EBEBEB;}
	.st4{opacity:0.1;fill:#EBEBEB;}
	.st5{fill:#CED4D6;}
	.st6{fill:#9DADB3;}
	.st7{fill:#05526A;}
	.st8{opacity:0.75;fill:#05526A;}
	.st9{fill:#ECECEC;}
	.st10{opacity:0.25;fill:#EBEBEB;}
	.st11{fill:#FFFFFF;}
	.st12{fill:#CED4D6;stroke:#CED4D6;stroke-miterlimit:10;}
	.st13{fill:#CED4D6;stroke:#E2E2E2;stroke-miterlimit:10;}
</style><style
     id="style3642"
     type="text/css">
	.st0{fill:#FFFFFF;stroke:#E2E2E2;stroke-miterlimit:10;}
	.st1{opacity:0.5;fill:none;stroke:#EBEBEB;stroke-width:4.3124;stroke-linecap:round;stroke-miterlimit:10;}
	.st2{fill:#05526A;stroke:#05526A;stroke-miterlimit:10;}
	.st3{opacity:0.5;fill:#EBEBEB;}
	.st4{opacity:0.1;fill:#EBEBEB;}
	.st5{fill:#CED4D6;}
	.st6{fill:#9DADB3;}
	.st7{fill:#05526A;}
	.st8{opacity:0.75;fill:#05526A;}
	.st9{fill:#ECECEC;}
	.st10{opacity:0.25;fill:#EBEBEB;}
	.st11{fill:#FFFFFF;}
	.st12{fill:#CED4D6;stroke:#CED4D6;stroke-miterlimit:10;}
	.st13{fill:#CED4D6;stroke:#E2E2E2;stroke-miterlimit:10;}
</style><style
     id="style3735"
     type="text/css">
	.st0{fill:#FFFFFF;stroke:#E2E2E2;stroke-miterlimit:10;}
	.st1{opacity:0.5;fill:none;stroke:#EBEBEB;stroke-width:4.3124;stroke-linecap:round;stroke-miterlimit:10;}
	.st2{fill:#05526A;stroke:#05526A;stroke-miterlimit:10;}
	.st3{opacity:0.5;fill:#EBEBEB;}
	.st4{opacity:0.1;fill:#EBEBEB;}
	.st5{fill:#CED4D6;}
	.st6{fill:#9DADB3;}
	.st7{fill:#05526A;}
	.st8{opacity:0.75;fill:#05526A;}
	.st9{fill:#ECECEC;}
	.st10{opacity:0.25;fill:#EBEBEB;}
	.st11{fill:#FFFFFF;}
	.st12{fill:#CED4D6;stroke:#CED4D6;stroke-miterlimit:10;}
	.st13{fill:#CED4D6;stroke:#E2E2E2;stroke-miterlimit:10;}
</style></svg>